# AST/ASF file generated using VICON BodyLanguage
# -----------------------------------------------
:version 1.10
:name VICON
:units
  mass 1.0
  length 0.45
  angle deg
:documentation
   .ast/.asf automatically generated from VICON data using
   VICON BodyBuilder and BodyLanguage model FoxedUp or BRILLIANT.MOD
:root
   order TX TY TZ RX RY RZ
   axis XYZ
   position 0 0 0  
   orientation 0 0 0 
:bonedata
  begin
     id 1 
     name lhipjoint
     direction 0.561001 -0.76473 0.316963 
     length 2.4722 
     axis 0 0 0  XYZ
  end
  begin
     id 2 
     name lfemur
     direction 0.34202 -0.939693 0  
     length 7.59403  
     axis 0 0 20  XYZ
    dof rx ry rz
    limits (-160.0 20.0)
           (-70.0 70.0)
           (-60.0 70.0)
  end
  begin
     id 3 
     name ltibia
     direction 0.34202 -0.939693 0   
     length 7.89655   
     axis 0 0 20   XYZ
    dof rx
    limits (-10.0 170.0)
  end
  begin
     id 4 
     name lfoot
     direction 0.061296 -0.168409 0.98381   
     length 2.73287   
     axis -90 7.62852e-016 20   XYZ
    dof rx rz
    limits (-45.0 90.0)
           (-70.0 20.0)
  end
  begin
     id 5 
     name ltoes
     direction 1.53547e-011 -4.21984e-011 1   
     length 1.37057   
     axis -90 7.62852e-016 20   XYZ
    dof rx
    limits (-90.0 20.0)
  end
  begin
     id 6 
     name rhipjoint
     direction -0.559611 -0.765599 0.317323   
     length 2.46939  
     axis 0 0 0  XYZ 
  end
  begin
     id 7 
     name rfemur
     direction -0.34202 -0.939693 0   
     length 7.53712   
     axis 0 0 -20   XYZ
    dof rx ry rz
    limits (-160.0 20.0)
           (-70.0 70.0)
           (-70.0 60.0)
  end
  begin
     id 8 
     name rtibia
     direction -0.34202 -0.939693 0   
     length 8.12549   
     axis 0 0 -20   XYZ
    dof rx
    limits (-10.0 170.0)
 end
 begin
     id 9 
     name rfoot
     direction -0.066984 -0.184037 0.980634   
     length 2.67541  
     axis -90 -7.62852e-016 -20   XYZ
    dof rx rz
    limits (-45.0 90.0)
           (-20.0 70.0)
  end
  begin
     id 10 
     name rtoes
     direction -1.53549e-011 -4.21786e-011 1   
     length 1.34085   
     axis -90 -7.62852e-016 -20   XYZ
    dof rx
    limits (-90.0 20.0)
  end
  begin
     id 11 
     name lowerback
     direction -0.0522728 0.992594 -0.109658   
     length 2.05633   
     axis 0 0 0   XYZ
    dof rx ry rz
    limits (-20.0 45.0)
           (-30.0 30.0)
           (-30.0 30.0)
  end
  begin
     id 12 
     name upperback
     direction 0.00589338 0.999977 0.00335704   
     length 2.05845   
     axis 0 0 0   XYZ
    dof rx ry rz
    limits (-20.0 45.0)
           (-30.0 30.0)
           (-30.0 30.0)
  end
  begin
     id 13 
     name thorax
     direction 0.0292928 0.998059 0.0549487   
     length 2.09281   
     axis 0 0 0   XYZ
    dof rx ry rz
    limits (-20.0 45.0)
           (-30.0 30.0)
           (-30.0 30.0)
  end
  begin
     id 14 
     name lowerneck
     direction 0.0356368 0.980775 0.191858   
     length 1.84767   
     axis 0 0 0   XYZ
    dof rx ry rz
    limits (-20.0 45.0)
           (-30.0 30.0)
           (-30.0 30.0)
  end
  begin
     id 15 
     name upperneck
     direction -0.0227605 0.98931 -0.14404   
     length 1.89582   
     axis 0 0 0   XYZ
    dof rx ry rz
    limits (-20.0 45.0)
           (-30.0 30.0)
           (-30.0 30.0)
  end
  begin
     id 16
     name head
     direction -0.00932985 0.997511 -0.0698904  
     length 1.90213  
     axis 0 0 0   XYZ
    dof rx ry rz
    limits (-20.0 45.0)
           (-30.0 30.0)
           (-30.0 30.0)
  end
  begin
     id 17 
     name lclavicle
     direction 0.873442 0.479511 0.0846686  
     length 3.41193  
     axis 0 0 0   XYZ
    dof ry rz
    limits (-20.0 10.0)
           (0.0 20.0)
  end
  begin
     id 18 
     name lhumerus
     direction 1 -4.4897e-011 -5.62117e-018   
     length 5.59864   
     axis 180 -30 -90   XYZ
    dof rx ry rz
    limits (-60.0 90.0)
           (-90.0 90.0)
           (-90.0 90.0)
  end
  begin
     id 19
     name lradius
     direction 1 -4.48966e-011 -6.26295e-027   
     length 3.59542   
     axis 180 -30 -90   XYZ
    dof rx
    limits (-10.0 170.0)
  end
  begin
     id 20
     name lwrist
     direction 1 -4.48947e-011 -1.74096e-026   
     length 1.79771   
     axis 1.04567e-014 90 90   XYZ
    dof ry
    limits (-180.0 0.0)
 end
  begin
     id 21 
     name lhand
     direction 1 -4.49085e-011 -3.48469e-026   
     length 0.572014   
     axis 2.22196e-014 90 90   XYZ
    dof rx rz
    limits (-90.0 90.0)
           (-45.0 45.0)
  end
  begin
     id 22 
     name lfingers
     direction 1 -4.48884e-011 -6.96135e-026   
     length 0.461173   
     axis 4.44383e-014 90 90   XYZ
    dof rx
    limits (0.0 90.0)
  end
  begin
     id 23
     name lthumb
     direction 0.707107 -6.34976e-011 0.707107   
     length 0.662154   
     axis -90 45 -5.4397e-014   XYZ
    dof rx rz
    limits (-45.0 45.0)
           (-45.0 45.0)
  end
  begin
     id 24 
     name rclavicle
     direction -0.890242 0.443271 0.104786   
     length 3.46753  
     axis 0 0 0   XYZ 
    dof ry rz
    limits (-10.0 20.0)
           (-20.0 0.0)
  end
  begin
     id 25 
     name rhumerus
     direction -1 -4.48963e-011 -5.41723e-018  
     length 5.8094   
     axis 180 30 90   XYZ
    dof rx ry rz
    limits (-90.0 60.0)
           (-90.0 90.0)
           (-90.0 90.0)
  end
  begin
     id 26 
     name rradius
     direction -1 -4.48958e-011 -6.51059e-027   
     length 3.66953   
     axis 180 30 90   XYZ
    dof rx
    limits (-10.0 170.0)
  end
  begin
     id 27 
     name rwrist
     direction -1 -4.48975e-011 -1.74124e-026   
     length 1.83476   
     axis 1.04567e-014 -90 -90   XYZ
    dof ry
    limits (-180.0 0.0)
  end
  begin
     id 28
     name rhand
     direction -1 -4.49013e-011 -3.48326e-026   
     length 0.57843   
     axis 2.22196e-014 -90 -90   XYZ
    dof rx rz
    limits (-90.0 90.0)
           (-45.0 45.0)
  end
  begin
     id 29
     name rfingers
     direction -1 -4.49023e-011 -6.9669e-026   
     length 0.466345   
     axis 4.44383e-014 -90 -90   XYZ
    dof rx
    limits (0.0 90.0)
  end
  begin
     id 30
     name rthumb
     direction -0.707107 -6.34926e-011 0.707107   
     length 0.669581   
     axis -90 -45 5.4397e-014   XYZ
    dof rx rz
    limits (-45.0 45.0)
           (-45.0 45.0)
  end
:hierarchy
  begin
    root lhipjoint rhipjoint lowerback
    lhipjoint lfemur
    lfemur ltibia
    ltibia lfoot
    lfoot ltoes
    rhipjoint rfemur
    rfemur rtibia
    rtibia rfoot
    rfoot rtoes
    lowerback upperback
    upperback thorax
    thorax lowerneck lclavicle rclavicle
    lowerneck upperneck
    upperneck head
    lclavicle lhumerus
    lhumerus lradius
    lradius lwrist
    lwrist lhand lthumb
    lhand lfingers
    rclavicle rhumerus
    rhumerus rradius
    rradius rwrist
    rwrist rhand rthumb
    rhand rfingers
  end

#!OML:ASF H:\SkateBoarding\Project 1\Capture day 1\Session 1\Skater.ASF
:FULLY-SPECIFIED
:DEGREES
161
root 2.59912 18.3271 3.64404 -0.082803 21.767 -1.06451
lowerback 9.70798 -2.18261 -3.76786
upperback -1.00119 -3.35601 -0.0131599
thorax -6.28627 -1.51628 2.60077
lowerneck -13.506 0.217361 3.40735
upperneck 38.7418 -0.889402 0.965047
head 16.0608 0.344953 -0.319701
rclavicle 2.47984e-014 1.39149e-014
rhumerus -36.0137 -5.86105 -76.8259
rradius 28.9106
rwrist -4.35414
rhand -41.7561 -6.30889
rfingers 7.12502
rthumb -14.6602 -35.7706
lclavicle 2.47984e-014 1.39149e-014
lhumerus -23.3327 -11.2048 94.2429
lradius 34.8207
lwrist 21.8704
lhand -26.5561 12.2283
lfingers 7.12502
lthumb 0.00864367 42.208
rfemur -36.9582 15.732 16.9191
rtibia 58.7362
rfoot -22.0674 10.894
rtoes -5.98647
lfemur -2.06089 -23.8704 -13.2524
ltibia 28.6029
lfoot -11.2145 -14.7662
ltoes -6.82555
162
root 2.60306 18.3188 3.78715 -0.0995391 21.6618 -1.00315
lowerback 9.64645 -2.14233 -3.86958
upperback -1.0361 -3.31627 -0.0706938
thorax -6.28908 -1.49376 2.58972
lowerneck -13.4948 0.249244 3.45886
upperneck 38.7294 -0.86466 0.98825
head 16.0526 0.36591 -0.314548
rclavicle -2.28602e-014 0
rhumerus -35.7984 -5.77074 -77.0934
rradius 29.1586
rwrist -4.60102
rhand -41.7492 -6.32481
rfingers 7.12502
rthumb -14.6536 -35.787
lclavicle -2.28602e-014 0
lhumerus -23.7295 -11.1187 94.1887
lradius 34.9408
lwrist 22.2015
lhand -26.3923 12.5096
lfingers 7.12502
lthumb 0.166863 42.4893
rfemur -36.9354 15.5817 16.9696
rtibia 58.9412
rfoot -22.0426 11.0521
rtoes -6.10929
lfemur -1.77759 -23.7088 -13.3027
ltibia 28.1705
lfoot -11.4381 -14.815
ltoes -6.42699
163
root 2.60738 18.3112 3.92848 -0.0907442 21.5807 -0.927884
lowerback 9.57324 -2.11606 -3.97255
upperback -1.07578 -3.29519 -0.13418
thorax -6.28936 -1.48045 2.57534
lowerneck -13.4879 0.283445 3.51224
upperneck 38.6891 -0.831103 0.996223
head 16.031 0.387971 -0.315037
rclavicle 2.82771e-014 6.36111e-015
rhumerus -35.5953 -5.67689 -77.3764
rradius 29.4247
rwrist -4.89398
rhand -41.7608 -6.30269
rfingers 7.12502
rthumb -14.6647 -35.7641
lclavicle 2.82771e-014 6.36111e-015
lhumerus -24.1242 -11.0228 94.1141
lradius 35.0534
lwrist 22.526
lhand -26.195 12.7618
lfingers 7.12502
lthumb 0.357424 42.7413
rfemur -36.9393 15.426 16.995
rtibia 59.1574
rfoot -22.0313 11.1872
rtoes -6.24128
lfemur -1.52909 -23.5395 -13.3664
ltibia 27.7729
lfoot -11.7231 -14.803
ltoes -6.17204
164
root 2.61189 18.3046 4.06785 -0.0622648 21.5291 -0.844808
lowerback 9.49288 -2.10381 -4.07854
upperback -1.11735 -3.29264 -0.196724
thorax -6.28608 -1.47617 2.56595
lowerneck -13.488 0.319038 3.55215
upperneck 38.6219 -0.788814 0.997527
head 15.9972 0.410095 -0.314708
rclavicle 8.87077e-015 7.95139e-016
rhumerus -35.4057 -5.56497 -77.6715
rradius 29.7108
rwrist -5.22842
rhand -41.7905 -6.2503
rfingers 7.12502
rthumb -14.6933 -35.7096
lclavicle 8.87077e-015 7.95139e-016
lhumerus -24.5035 -10.9111 94.0266
lradius 35.1428
lwrist 22.8242
lhand -25.9683 13.0002
lfingers 7.12502
lthumb 0.576395 42.9792
rfemur -36.9619 15.2794 17.0001
rtibia 59.3751
rfoot -22.0425 11.2886
rtoes -6.36467
lfemur -1.32015 -23.377 -13.4379
ltibia 27.4446
lfoot -12.0289 -14.736
ltoes -6.06571
165
root 2.61646 18.2992 4.2051 -0.017676 21.512 -0.755669
lowerback 9.4099 -2.10149 -4.18751
upperback -1.15994 -3.30331 -0.25823
thorax -6.28124 -1.47827 2.56103
lowerneck -13.491 0.350506 3.58751
upperneck 38.5273 -0.746595 0.986846
head 15.9497 0.429238 -0.318947
rclavicle -5.94739e-014 6.75868e-015
rhumerus -35.2379 -5.43838 -77.9734
rradius 30.0193
rwrist -5.60457
rhand -41.8352 -6.18367
rfingers 7.12502
rthumb -14.7364 -35.6399
lclavicle -5.94739e-014 6.75868e-015
lhumerus -24.8595 -10.7961 93.9349
lradius 35.1954
lwrist 23.0807
lhand -25.7317 13.2145
lfingers 7.12502
lthumb 0.804879 43.1927
rfemur -36.9998 15.1453 16.9858
rtibia 59.589
rfoot -22.0812 11.3462
rtoes -6.49433
lfemur -1.15271 -23.237 -13.5148
ltibia 27.2018
lfoot -12.3235 -14.6339
ltoes -6.0892
166
root 2.6211 18.2948 4.34002 0.0377574 21.5304 -0.667653
lowerback 9.32885 -2.10784 -4.29306
upperback -1.20266 -3.32485 -0.316459
thorax -6.27682 -1.48572 2.55919
lowerneck -13.4944 0.376292 3.61773
upperneck 38.4062 -0.706264 0.963673
head 15.8888 0.444529 -0.328135
rclavicle -6.49777e-015 -1.70955e-014
rhumerus -35.0917 -5.28935 -78.2803
rradius 30.3448
rwrist -6.01252
rhand -41.8889 -6.08797
rfingers 7.12502
rthumb -14.7882 -35.5404
lclavicle -6.49777e-015 -1.70955e-014
lhumerus -25.1858 -10.6784 93.8429
lradius 35.2017
lwrist 23.2809
lhand -25.4968 13.3579
lfingers 7.12502
lthumb 1.03178 43.3351
rfemur -37.0522 15.035 16.9568
rtibia 59.7957
rfoot -22.1512 11.3526
rtoes -6.62537
lfemur -1.02306 -23.1296 -13.5898
ltibia 27.0365
lfoot -12.5856 -14.5212
ltoes -6.19333
167
root 2.62588 18.2908 4.47253 0.0963267 21.5821 -0.587738
lowerback 9.25464 -2.1222 -4.39183
upperback -1.24312 -3.3559 -0.3664
thorax -6.27303 -1.49792 2.56377
lowerneck -13.4973 0.396808 3.6411
upperneck 38.2607 -0.666317 0.927037
head 15.8152 0.45628 -0.342075
rclavicle -4.33972e-014 -2.0276e-014
rhumerus -34.9631 -5.11332 -78.5853
rradius 30.6786
rwrist -6.42399
rhand -41.9407 -5.97647
rfingers 7.12502
rthumb -14.838 -35.4252
lclavicle -4.33972e-014 -2.0276e-014
lhumerus -25.475 -10.5551 93.7546
lradius 35.1543
lwrist 23.4219
lhand -25.2818 13.4458
lfingers 7.12502
lthumb 1.23937 43.4219
rfemur -37.1153 14.9476 16.9217
rtibia 59.9941
rfoot -22.2486 11.3089
rtoes -6.7518
lfemur -0.919578 -23.0597 -13.6578
ltibia 26.9278
lfoot -12.82 -14.4069
ltoes -6.34026
